<svg xmlns="http://www.w3.org/2000/svg" viewBox="0 0 141.7 43.5"><defs><style>.a{fill:#231f20;}</style></defs><title>e_5</title><path class="a" d="M21,42.72a21,21,0,0,1-7.66-1.42,19,19,0,0,1-6.47-4.13,20.21,20.21,0,0,1-4.51-6.71A22.94,22.94,0,0,1,.6,21.33a22.42,22.42,0,0,1,1.74-9.1A20.32,20.32,0,0,1,6.93,5.55a19.73,19.73,0,0,1,6.53-4.13A20.57,20.57,0,0,1,21,0a21.82,21.82,0,0,1,6.48.92,18.35,18.35,0,0,1,5.26,2.61,15.39,15.39,0,0,1,3.9,4.1A18.85,18.85,0,0,1,39,13l-5.26,1.85A12.35,12.35,0,0,0,29.3,7.69,13.37,13.37,0,0,0,21,5.2a15,15,0,0,0-5.4,1,13.59,13.59,0,0,0-4.69,3A14.68,14.68,0,0,0,7.6,14.31a18.77,18.77,0,0,0-1.22,7,18.77,18.77,0,0,0,1.22,7,15,15,0,0,0,3.26,5.09,13.39,13.39,0,0,0,4.69,3.07,15,15,0,0,0,5.4,1,14.2,14.2,0,0,0,4.74-.75,12.94,12.94,0,0,0,3.79-2.06,11.68,11.68,0,0,0,2.77-3.12A16.78,16.78,0,0,0,34,27.69l5,1.85a18.48,18.48,0,0,1-2.42,5.32A17,17,0,0,1,32.71,39a17.82,17.82,0,0,1-5.26,2.72A20.75,20.75,0,0,1,21,42.72Z"/></svg>