<svg xmlns="http://www.w3.org/2000/svg" xmlns:xlink="http://www.w3.org/1999/xlink" viewBox="0 0 141.7 43.5"><defs><style>.a{fill:url(#a);}.b{fill:#231f20;}</style><linearGradient id="a" x1="5.08" y1="21.01" x2="56.11" y2="21.01" gradientUnits="userSpaceOnUse"><stop offset="0" stop-color="#ff0"/><stop offset="1" stop-color="#c7b299" stop-opacity="0"/></linearGradient></defs><title>e</title><path class="a" d="M5.08.94H41A15.11,15.11,0,0,1,56.11,16.06V26A15.11,15.11,0,0,1,41,41.08H9.52a4.44,4.44,0,0,1-4.44-4.44V.94a0,0,0,0,1,0,0Z"/><path class="b" d="M.5,42.93V0H26.59v5.5H6.43v13.2H24.72v5.57H6.43V37.42H26.59v5.51Z"/><rect class="b" x="0.5" y="18.68" width="54.33" height="5.57"/><rect class="b" x="0.5" y="0.01" width="55.61" height="5.57"/><rect class="b" x="0.5" y="37.36" width="55.61" height="5.57"/></svg>