<svg xmlns="http://www.w3.org/2000/svg" xmlns:xlink="http://www.w3.org/1999/xlink" viewBox="0 0 141.7 43.5"><defs><style>.a{fill:url(#a);}.b{fill:#231f20;}</style><linearGradient id="a" x1="4.06" y1="21.01" x2="85.47" y2="21.01" gradientUnits="userSpaceOnUse"><stop offset="0" stop-color="#ff0"/><stop offset="1" stop-color="#c7b299" stop-opacity="0"/></linearGradient></defs><title>e</title><path class="a" d="M4.06.94h66.3A15.11,15.11,0,0,1,85.47,16.05V26A15.11,15.11,0,0,1,70.36,41.08H8.5a4.44,4.44,0,0,1-4.44-4.44V.94a0,0,0,0,1,0,0Z"/><path class="b" d="M.52,42.92V0H26.61V5.51H6.45v13.2H24.74v5.57H6.45V37.41H26.61v5.51Z"/><rect class="b" x="0.52" y="18.68" width="82.99" height="5.57"/><rect class="b" x="0.52" width="84.95" height="5.57"/><rect class="b" x="0.52" y="37.35" width="84.95" height="5.57"/></svg>