<svg xmlns="http://www.w3.org/2000/svg" xmlns:xlink="http://www.w3.org/1999/xlink" viewBox="0 0 141.7 43.5"><defs><style>.a{fill:url(#a);}.b{fill:#231f20;}</style><linearGradient id="a" x1="4.33" y1="21.01" x2="108.96" y2="21.01" gradientUnits="userSpaceOnUse"><stop offset="0" stop-color="#ff0"/><stop offset="1" stop-color="#c7b299" stop-opacity="0"/></linearGradient></defs><title>e</title><path class="a" d="M4.33.94H93.85A15.11,15.11,0,0,1,109,16.06V26A15.11,15.11,0,0,1,93.85,41.08H8.77a4.44,4.44,0,0,1-4.44-4.44V.94a0,0,0,0,1,0,0Z"/><path class="b" d="M.35,42.93V0H26.44v5.5H6.28v13.2H24.56v5.57H6.28V37.42H26.44v5.51Z"/><rect class="b" x="0.35" y="18.68" width="104.81" height="5.57"/><rect class="b" x="0.35" y="0.01" width="107.28" height="5.57"/><rect class="b" x="0.35" y="37.36" width="107.28" height="5.57"/></svg>