<svg xmlns="http://www.w3.org/2000/svg" viewBox="0 0 29.2 43.5"><defs><style>.a{fill:#231f20;}</style></defs><title>p</title><path class="a" d="M27.74,7.77a12.28,12.28,0,0,0-2.68-4,12,12,0,0,0-4.15-2.68,14.55,14.55,0,0,0-5.38-1H11.05V5.42h3.39a8.72,8.72,0,0,1,6,2,7,7,0,0,1,2.2,5.42,6.71,6.71,0,0,1-2.2,5.26,8.76,8.76,0,0,1-6,2H5.9V11.46H0V42.79H5.9V25.34h9.63a14.55,14.55,0,0,0,5.38-1,12.3,12.3,0,0,0,4.15-2.62,11.46,11.46,0,0,0,2.68-4,13,13,0,0,0,1-5A12.8,12.8,0,0,0,27.74,7.77Z"/><circle class="a" cx="3.41" cy="3.45" r="3.41"/></svg>