<svg xmlns="http://www.w3.org/2000/svg" viewBox="0 0 141.7 43.5"><defs><style>.a{fill:#231f20;}</style></defs><title>psvg</title><path class="a" d="M28.07,7.77a12.53,12.53,0,0,0-2.67-4,12.27,12.27,0,0,0-4.16-2.68,14.55,14.55,0,0,0-5.38-1H11.39v5.3h3.39a8.69,8.69,0,0,1,6,2A6.93,6.93,0,0,1,23,12.83a6.66,6.66,0,0,1-2.2,5.26,8.73,8.73,0,0,1-6,2H6.23V11.46H.33V42.8h5.9V25.34h9.63a14.55,14.55,0,0,0,5.38-1,12.44,12.44,0,0,0,4.16-2.62,11.58,11.58,0,0,0,2.67-4,13,13,0,0,0,1-5A12.81,12.81,0,0,0,28.07,7.77Z"/><circle class="a" cx="3.74" cy="3.45" r="1.2"/></svg>