<svg xmlns="http://www.w3.org/2000/svg" viewBox="0 0 141.7 43.5"><defs><style>.a{fill:#231f20;}</style></defs><title>s</title><path class="a" d="M9.5,22.6a13.34,13.34,0,0,1-4.33-2.88,10.12,10.12,0,0,1-2.81-7.46,10.82,10.82,0,0,1,1-4.65A12.59,12.59,0,0,1,6.28,3.72,14.32,14.32,0,0,1,16,0,16.45,16.45,0,0,1,21.9,1,12.9,12.9,0,0,1,26,3.43a11.65,11.65,0,0,1,2.59,3.31,14,14,0,0,1,1.28,3.48L24.78,12A9,9,0,0,0,24,9.67a8,8,0,0,0-1.63-2.29,8.07,8.07,0,0,0-2.61-1.72A9.51,9.51,0,0,0,16.06,5a9.32,9.32,0,0,0-3.19.52A8,8,0,0,0,10.34,7,6.46,6.46,0,0,0,8.69,9.15a6.27,6.27,0,0,0-.58,2.7,5.72,5.72,0,0,0,1.33,3.8M23,20.26a12.83,12.83,0,0,1,4.47,3.09,10.52,10.52,0,0,1,2.76,7.37,11.09,11.09,0,0,1-1,4.59A11.52,11.52,0,0,1,26.4,39.2a14.25,14.25,0,0,1-4.47,2.71,16.4,16.4,0,0,1-5.92,1,17.51,17.51,0,0,1-6.48-1.1A15.1,15.1,0,0,1,4.88,39,13,13,0,0,1,2,35.05,14.53,14.53,0,0,1,.61,30.67l5.46-1.75a11.48,11.48,0,0,0,.85,3.34,8.34,8.34,0,0,0,1.91,2.82,9.47,9.47,0,0,0,3,2,10.83,10.83,0,0,0,4.1.72q4.23,0,6.36-1.91a6.09,6.09,0,0,0,.61-8.63"/><circle class="a" cx="16.12" cy="21.33" r="3.29"/></svg>