<svg xmlns="http://www.w3.org/2000/svg" viewBox="0 0 141.7 43.5"><defs><style>.a{fill:#231f20;}</style></defs><title>s</title><path class="a" d="M9.45,22.6a13.4,13.4,0,0,1-4.32-2.88,10.09,10.09,0,0,1-2.82-7.46,10.68,10.68,0,0,1,1-4.65A12.72,12.72,0,0,1,6.23,3.72,14.37,14.37,0,0,1,15.91,0a16.45,16.45,0,0,1,5.95,1A13,13,0,0,1,26,3.43a11.65,11.65,0,0,1,2.59,3.31,14,14,0,0,1,1.28,3.48L24.73,12A8.6,8.6,0,0,0,24,9.67a8,8,0,0,0-1.63-2.29,8.29,8.29,0,0,0-2.61-1.72A9.58,9.58,0,0,0,16,5a9.28,9.28,0,0,0-3.19.52A8,8,0,0,0,10.3,7,6.34,6.34,0,0,0,8.65,9.15a6.27,6.27,0,0,0-.59,2.7,5.73,5.73,0,0,0,1.34,3.8M23,20.26a12.65,12.65,0,0,1,4.47,3.09,10.52,10.52,0,0,1,2.76,7.37,11.24,11.24,0,0,1-1,4.59,11.52,11.52,0,0,1-2.85,3.89,14.25,14.25,0,0,1-4.47,2.71,16.42,16.42,0,0,1-5.93,1,17.5,17.5,0,0,1-6.47-1.1A15.1,15.1,0,0,1,4.84,39a12.78,12.78,0,0,1-2.93-3.92A14.53,14.53,0,0,1,.57,30.67L6,28.92a11.79,11.79,0,0,0,.84,3.34,8.51,8.51,0,0,0,1.92,2.82,9.47,9.47,0,0,0,3,2,10.83,10.83,0,0,0,4.1.72q4.23,0,6.36-1.91a6.09,6.09,0,0,0,.61-8.63"/><circle class="a" cx="16.08" cy="21.33" r="1.2"/></svg>