<svg xmlns="http://www.w3.org/2000/svg" xmlns:xlink="http://www.w3.org/1999/xlink" viewBox="0 0 31.2 43.5"><defs><style>.a{fill:url(#a);}.b{fill:#231f20;}</style><linearGradient id="a" x1="2.67" y1="19.21" x2="29.29" y2="19.21" gradientUnits="userSpaceOnUse"><stop offset="0" stop-color="#ff0"/><stop offset="1" stop-color="#c7b299" stop-opacity="0"/></linearGradient></defs><title>u_</title><path class="a" d="M2.67,0H23.36a5.92,5.92,0,0,1,5.92,5.92v16.8A15.69,15.69,0,0,1,13.6,38.41h0A10.93,10.93,0,0,1,2.67,27.48V0A0,0,0,0,1,2.67,0Z"/><path class="b" d="M15.1,42.88a17.72,17.72,0,0,1-5.95-1A13.63,13.63,0,0,1,4.35,39a13.62,13.62,0,0,1-3.2-4.77A17.41,17.41,0,0,1,0,27.66V0H5.75V27.48c0,3.2.81,5.67,2.45,7.41a9,9,0,0,0,6.9,2.6"/><path class="b" d="M15.1,37.49A8.93,8.93,0,0,0,22,34.89q2.41-2.61,2.42-7.41V0h5.81V27.66a17.41,17.41,0,0,1-1.16,6.58A13.36,13.36,0,0,1,25.85,39a13.5,13.5,0,0,1-4.79,2.9,17.74,17.74,0,0,1-6,1"/></svg>