<svg xmlns="http://www.w3.org/2000/svg" xmlns:xlink="http://www.w3.org/1999/xlink" viewBox="0 0 141.7 43.5"><defs><style>.a{fill:url(#a);}.b{fill:#231f20;}</style><linearGradient id="a" x1="2.39" y1="19.21" x2="139.28" y2="19.21" gradientUnits="userSpaceOnUse"><stop offset="0" stop-color="#ff0"/><stop offset="1" stop-color="#c7b299" stop-opacity="0"/></linearGradient></defs><title>u_</title><path class="a" d="M2.39,0H133.54a5.74,5.74,0,0,1,5.74,5.74V32.67a5.74,5.74,0,0,1-5.74,5.74H8.13a5.74,5.74,0,0,1-5.74-5.74V0A0,0,0,0,1,2.39,0Z"/><path class="b" d="M15.4,42.88a17.74,17.74,0,0,1-6-1A13.5,13.5,0,0,1,4.65,39a13.36,13.36,0,0,1-3.2-4.77A17.41,17.41,0,0,1,.29,27.66V0H6V27.48q0,4.8,2.46,7.41a9,9,0,0,0,6.9,2.6"/><path class="b" d="M126.28,37.49a8.92,8.92,0,0,0,6.87-2.6q2.43-2.61,2.43-7.41V0h5.81V27.66a17.41,17.41,0,0,1-1.16,6.58,13.11,13.11,0,0,1-8,7.67,17.68,17.68,0,0,1-5.95,1"/><rect class="b" x="15.4" y="37.49" width="110.89" height="5.39"/></svg>