<svg xmlns="http://www.w3.org/2000/svg" xmlns:xlink="http://www.w3.org/1999/xlink" viewBox="0 0 141.7 43.5"><defs><style>.a{fill:url(#a);}.b{fill:#231f20;}</style><linearGradient id="a" x1="3.11" y1="19.21" x2="29.72" y2="19.21" gradientUnits="userSpaceOnUse"><stop offset="0" stop-color="#ff0"/><stop offset="1" stop-color="#c7b299" stop-opacity="0"/></linearGradient></defs><title>u_ext</title><path class="a" d="M3.11,0H23.8a5.92,5.92,0,0,1,5.92,5.92v16.8A15.69,15.69,0,0,1,14,38.41h0A10.93,10.93,0,0,1,3.11,27.48V0A0,0,0,0,1,3.11,0Z"/><path class="b" d="M15.54,42.88a17.72,17.72,0,0,1-5.95-1,13.11,13.11,0,0,1-8-7.67A17.41,17.41,0,0,1,.44,27.66V0H6.18V27.48q0,4.8,2.46,7.41a9,9,0,0,0,6.9,2.6"/><path class="b" d="M15.54,37.49a8.89,8.89,0,0,0,6.87-2.6q2.43-2.61,2.43-7.41V0h5.81V27.66a17.41,17.41,0,0,1-1.16,6.58A13.36,13.36,0,0,1,26.29,39a13.5,13.5,0,0,1-4.79,2.9,17.74,17.74,0,0,1-6,1"/></svg>