<svg xmlns="http://www.w3.org/2000/svg" xmlns:xlink="http://www.w3.org/1999/xlink" viewBox="0 0 141.7 43.5"><defs><style>.a{fill:url(#a);}.b{fill:#231f20;}</style><linearGradient id="a" x1="5.02" y1="19.21" x2="96.7" y2="19.21" gradientUnits="userSpaceOnUse"><stop offset="0" stop-color="#ff0"/><stop offset="1" stop-color="#c7b299" stop-opacity="0"/></linearGradient></defs><title>u_ext</title><path class="a" d="M5,0H96.7a0,0,0,0,1,0,0V25.67A12.74,12.74,0,0,1,84,38.41H9.31A4.28,4.28,0,0,1,5,34.13V0A0,0,0,0,1,5,0Z"/><path class="b" d="M15.66,42.88a17.72,17.72,0,0,1-5.95-1,13.11,13.11,0,0,1-8-7.67A17.41,17.41,0,0,1,.56,27.66V0H6.3V27.48q0,4.8,2.46,7.41a9,9,0,0,0,6.9,2.6"/><path class="b" d="M82.88,37.49a8.92,8.92,0,0,0,6.87-2.6q2.43-2.61,2.43-7.41V0H98V27.66a17.41,17.41,0,0,1-1.16,6.58,13.11,13.11,0,0,1-8,7.67,17.68,17.68,0,0,1-6,1"/><rect class="b" x="15.26" y="37.49" width="67.63" height="5.39"/></svg>