<svg xmlns="http://www.w3.org/2000/svg" xmlns:xlink="http://www.w3.org/1999/xlink" viewBox="0 0 141.7 43.5"><defs><style>.a{fill:url(#a);}.b{fill:#231f20;}</style><linearGradient id="a" x1="4" y1="19.21" x2="48.04" y2="19.21" gradientUnits="userSpaceOnUse"><stop offset="0" stop-color="#ff0"/><stop offset="1" stop-color="#c7b299" stop-opacity="0"/></linearGradient></defs><title>u_ext</title><path class="a" d="M4,0H48a0,0,0,0,1,0,0V26.29A12.12,12.12,0,0,1,35.92,38.41H8.24A4.25,4.25,0,0,1,4,34.16V0A0,0,0,0,1,4,0Z"/><path class="b" d="M15.41,42.88a17.72,17.72,0,0,1-5.95-1A13.46,13.46,0,0,1,4.66,39a13.49,13.49,0,0,1-3.2-4.77A17.41,17.41,0,0,1,.31,27.66V0H6.05V27.48q0,4.8,2.46,7.41a9,9,0,0,0,6.9,2.6"/><path class="b" d="M34.26,37.49a8.92,8.92,0,0,0,6.87-2.6q2.43-2.61,2.43-7.41V0h5.8V27.66a17.41,17.41,0,0,1-1.15,6.58,13.11,13.11,0,0,1-8,7.67,17.68,17.68,0,0,1-6,1"/><rect class="b" x="15.41" y="37.49" width="18.85" height="5.39"/></svg>